<svg xmlns="http://www.w3.org/2000/svg" xmlns:xlink="http://www.w3.org/1999/xlink" width="40" height="40" viewBox="0 0 40 40">
  <defs>
    <clipPath id="clip-path">
      <rect id="img_twitter" width="40" height="40" transform="translate(850 1580)" fill="#2eb5f2"/>
    </clipPath>
  </defs>
  <g id="Mask_Group_4" data-name="Mask Group 4" transform="translate(-850 -1580)" clip-path="url(#clip-path)">
    <path id="twitter" d="M39.85,7.7a16.465,16.465,0,0,1-4.04,1.154c.65-.11,1.61-1.287,1.994-1.765a7.433,7.433,0,0,0,1.345-2.45c.035-.07.063-.157-.007-.211a.235.235,0,0,0-.215.019,20.646,20.646,0,0,1-4.8,1.837A.323.323,0,0,1,33.8,6.2a3.877,3.877,0,0,0-.419-.43,8.494,8.494,0,0,0-2.325-1.425,8.1,8.1,0,0,0-3.566-.575,8.532,8.532,0,0,0-3.384.956A8.727,8.727,0,0,0,21.375,6.95a8.379,8.379,0,0,0-1.63,3.265,8.885,8.885,0,0,0-.088,3.446c.028.192.01.219-.164.192C12.9,12.875,7.436,10.515,3,5.462c-.192-.22-.3-.22-.455.016-1.941,2.91-1,7.584,1.425,9.881.324.306.655.612,1.014.891A8.4,8.4,0,0,1,1.8,15.36c-.192-.121-.289-.051-.306.166a4.987,4.987,0,0,0,.053.945A8.458,8.458,0,0,0,6.76,23.214a4.925,4.925,0,0,0,1.057.322,9.426,9.426,0,0,1-3.121.1c-.227-.045-.315.069-.227.287,1.372,3.744,4.337,4.857,6.557,5.491.3.052.595.052.892.122-.017.026-.035.026-.052.052-.737,1.122-3.29,1.959-4.479,2.375a16.056,16.056,0,0,1-6.8.87c-.365-.054-.442-.05-.541,0s-.012.15.1.244c.462.306.935.577,1.416.84a22.438,22.438,0,0,0,4.547,1.819c8.171,2.256,17.375.6,23.512-5.5,4.816-4.787,6.5-11.389,6.5-18,0-.257.305-.4.487-.537A15.807,15.807,0,0,0,39.8,8.372a.968.968,0,0,0,.2-.637V7.7C40,7.595,40.012,7.626,39.85,7.7Z" transform="translate(850 1579.776)" fill="#2eb5f2" fill-rule="evenodd"/>
  </g>
</svg>
